<svg xmlns="http://www.w3.org/2000/svg" version="1.1" viewBox="0.00 0.00 593.00 321.00">
<g stroke-width="2.00" fill="none" stroke-linecap="butt">
<path stroke="#000000" vector-effect="non-scaling-stroke" d="   M 477.00 105.71   L 475.66 106.15   Q 475.16 106.32 475.00 106.82   Q 473.03 113.07 468.31 117.53   Q 468.05 117.78 468.00 118.13   Q 467.97 118.32 467.96 118.50" fill="#000000"/>
<path stroke="#000000" vector-effect="non-scaling-stroke" d="   M 460.76 111.61   Q 463.80 110.64 465.33 108.06   C 468.62 102.51 462.47 95.30 457.71 93.06   C 453.12 90.90 449.60 93.31 444.96 96.00" fill="#000000"/>
<path stroke="#030101" vector-effect="non-scaling-stroke" d="   M 276.46 107.25   Q 276.93 107.42 277.48 107.21   Q 277.88 107.07 277.96 107.48   L 278.12 108.29   Q 278.24 108.94 277.58 108.95   C 274.93 108.99 277.96 111.99 277.94 112.81   Q 277.58 134.63 278.05 156.45   C 278.10 158.76 277.42 161.41 277.26 163.86   Q 277.23 164.39 276.82 164.73   L 275.84 165.54   Q 275.15 166.11 276.03 166.28   C 277.93 166.65 278.10 164.74 279.54 165.25" fill="#000000"/>
<path stroke="#000000" vector-effect="non-scaling-stroke" d="   M 193.56 218.49   Q 191.28 215.68 192.18 212.51   C 194.34 204.93 193.68 194.78 193.48 186.89   C 193.38 182.71 193.88 175.55 192.81 169.73   Q 192.72 169.23 192.30 168.92   L 191.00 167.96" fill="#000000"/>
<path stroke="#000000" vector-effect="non-scaling-stroke" d="   M 187.51 118.70   Q 186.29 118.39 185.02 118.66   Q 184.59 118.75 184.33 118.40   Q 183.31 116.99 184.32 115.61   Q 184.63 115.19 184.71 114.67   C 185.28 111.24 186.03 107.98 186.01 104.48   Q 185.99 97.29 186.01 90.06   Q 186.01 89.53 185.75 89.07   Q 184.32 86.63 186.28 84.88   Q 186.42 84.75 186.79 84.17   Q 186.94 83.95 186.96 83.75" fill="#000000"/>
<path stroke="#000000" vector-effect="non-scaling-stroke" d="   M 231.28 266.20   Q 232.73 267.40 233.45 269.08   C 235.27 273.38 239.70 277.54 242.72 281.14   C 243.87 282.51 243.86 283.93 243.25 285.46" fill="#000000"/>
<path stroke="#000000" vector-effect="non-scaling-stroke" d="   M 217.54 290.50   L 216.90 288.38   Q 216.72 287.76 217.30 287.48   L 226.32 283.15   Q 226.85 282.90 226.46 282.46   L 221.77 277.15   A 0.84 0.84 0.0 0 0 220.83 276.93   C 217.81 278.15 197.58 288.15 202.50 292.71" fill="#000000"/>
</g>
<path fill="#000000" d="   M 477.00 105.71   L 475.66 106.15   Q 475.16 106.32 475.00 106.82   Q 473.03 113.07 468.31 117.53   Q 468.05 117.78 468.00 118.13   Q 467.97 118.32 467.96 118.50   L 460.76 111.61   Q 463.80 110.64 465.33 108.06   C 468.62 102.51 462.47 95.30 457.71 93.06   C 453.12 90.90 449.60 93.31 444.96 96.00   Q 426.35 77.78 406.01 61.51   C 389.49 48.30 371.93 37.80 350.06 43.53   Q 345.17 44.81 331.67 51.28   C 315.27 59.14 299.13 67.11 280.84 70.44   C 278.94 70.79 274.94 71.17 273.20 70.34   C 267.02 67.37 270.84 60.13 275.13 57.42   Q 305.38 38.28 336.07 19.82   C 340.31 17.27 346.73 13.66 351.51 11.76   C 390.79 -3.86 422.14 34.17 442.34 61.37   C 457.19 81.36 465.94 93.13 477.00 105.71   Z"/>
<path fill="#000000" d="   M 276.46 107.25   Q 276.93 107.42 277.48 107.21   Q 277.88 107.07 277.96 107.48   L 278.12 108.29   Q 278.24 108.94 277.58 108.95   C 274.93 108.99 277.96 111.99 277.94 112.81   Q 277.58 134.63 278.05 156.45   C 278.10 158.76 277.42 161.41 277.26 163.86   Q 277.23 164.39 276.82 164.73   L 275.84 165.54   Q 275.15 166.11 276.03 166.28   C 277.93 166.65 278.10 164.74 279.54 165.25   C 251.43 182.57 222.58 201.37 193.56 218.49   Q 191.28 215.68 192.18 212.51   C 194.34 204.93 193.68 194.78 193.48 186.89   C 193.38 182.71 193.88 175.55 192.81 169.73   Q 192.72 169.23 192.30 168.92   L 191.00 167.96   Q 209.65 152.65 229.08 138.29   Q 229.48 137.99 229.23 137.55   Q 228.20 135.72 227.35 134.90   C 216.36 124.34 203.17 116.77 187.51 118.70   Q 186.29 118.39 185.02 118.66   Q 184.59 118.75 184.33 118.40   Q 183.31 116.99 184.32 115.61   Q 184.63 115.19 184.71 114.67   C 185.28 111.24 186.03 107.98 186.01 104.48   Q 185.99 97.29 186.01 90.06   Q 186.01 89.53 185.75 89.07   Q 184.32 86.63 186.28 84.88   Q 186.42 84.75 186.79 84.17   Q 186.94 83.95 186.96 83.75   C 203.06 80.04 218.24 82.73 229.64 94.82   C 234.78 100.27 245.25 112.09 254.36 118.26   Q 254.79 118.55 255.30 118.42   C 262.50 116.53 269.90 110.91 276.46 107.25   Z"/>
<path fill="#000000" d="   M 186.96 83.75   Q 186.94 83.95 186.79 84.17   Q 186.42 84.75 186.28 84.88   Q 184.32 86.63 185.75 89.07   Q 186.01 89.53 186.01 90.06   Q 185.99 97.29 186.01 104.48   C 186.03 107.98 185.28 111.24 184.71 114.67   Q 184.63 115.19 184.32 115.61   Q 183.31 116.99 184.33 118.40   Q 184.59 118.75 185.02 118.66   Q 186.29 118.39 187.51 118.70   C 170.70 121.70 152.15 131.17 138.61 138.66   C 116.67 150.80 95.22 164.11 72.21 174.16   C 66.97 176.45 55.78 181.32 51.05 179.91   Q 50.49 179.74 50.28 179.19   Q 48.87 175.47 53.35 173.36   Q 59.73 170.37 75.18 159.91   Q 82.87 154.71 99.42 140.16   C 126.69 116.18 152.57 90.51 186.96 83.75   Z"/>
<path fill="#000000" d="   M 279.54 165.25   C 278.10 164.74 277.93 166.65 276.03 166.28   Q 275.15 166.11 275.84 165.54   L 276.82 164.73   Q 277.23 164.39 277.26 163.86   C 277.42 161.41 278.10 158.76 278.05 156.45   Q 277.58 134.63 277.94 112.81   C 277.96 111.99 274.93 108.99 277.58 108.95   Q 278.24 108.94 278.12 108.29   L 277.96 107.48   Q 277.88 107.07 277.48 107.21   Q 276.93 107.42 276.46 107.25   C 298.41 93.90 328.48 80.88 354.48 88.02   C 377.05 94.21 383.57 118.56 396.31 134.90   C 403.77 144.47 411.13 151.94 421.23 160.70   C 443.49 180.03 465.20 200.28 485.16 222.00   C 494.01 231.63 500.16 237.69 509.86 243.87   Q 511.79 245.10 512.64 247.46   Q 512.81 247.91 512.56 248.31   Q 510.73 251.26 507.74 250.54   Q 493.58 247.15 479.24 244.55   C 468.30 242.57 455.75 235.04 446.00 228.99   Q 430.50 219.37 390.55 195.72   C 382.67 191.06 371.96 183.40 365.63 178.56   Q 356.09 171.27 350.32 163.68   C 345.27 157.03 339.96 150.29 336.45 142.65   A 2.12 2.10 73.9 0 0 334.28 141.44   Q 325.08 142.58 316.52 145.99   Q 307.99 149.40 279.54 165.25   Z"/>
<path fill="#000000" d="   M 460.76 111.61   L 444.96 96.00   C 449.60 93.31 453.12 90.90 457.71 93.06   C 462.47 95.30 468.62 102.51 465.33 108.06   Q 463.80 110.64 460.76 111.61   Z"/>
<path fill="#000000" d="   M 477.00 105.71   Q 513.96 145.51 558.18 177.07   Q 560.93 179.03 562.66 182.01   Q 562.92 182.47 562.78 182.99   C 562.07 185.65 558.32 185.91 556.23 185.02   C 522.53 170.63 495.59 145.22 467.96 118.50   Q 467.97 118.32 468.00 118.13   Q 468.05 117.78 468.31 117.53   Q 473.03 113.07 475.00 106.82   Q 475.16 106.32 475.66 106.15   L 477.00 105.71   Z"/>
<path fill="#000000" d="   M 191.00 167.96   L 192.30 168.92   Q 192.72 169.23 192.81 169.73   C 193.88 175.55 193.38 182.71 193.48 186.89   C 193.68 194.78 194.34 204.93 192.18 212.51   Q 191.28 215.68 193.56 218.49   Q 164.35 235.66 135.29 247.53   Q 123.36 252.41 116.59 255.47   Q 115.88 255.79 116.61 256.05   Q 125.22 259.21 131.24 260.33   C 164.68 266.57 197.37 267.39 231.28 266.20   Q 232.73 267.40 233.45 269.08   C 235.27 273.38 239.70 277.54 242.72 281.14   C 243.87 282.51 243.86 283.93 243.25 285.46   Q 230.50 288.49 217.54 290.50   L 216.90 288.38   Q 216.72 287.76 217.30 287.48   L 226.32 283.15   Q 226.85 282.90 226.46 282.46   L 221.77 277.15   A 0.84 0.84 0.0 0 0 220.83 276.93   C 217.81 278.15 197.58 288.15 202.50 292.71   C 154.42 299.32 97.56 296.46 56.68 268.57   C 48.19 262.77 47.34 250.54 54.07 243.09   C 56.78 240.08 62.68 237.94 65.99 236.98   Q 101.92 226.56 134.24 207.77   C 155.09 195.65 171.21 183.56 191.00 167.96   Z"/>
<path fill="#000000" d="   M 243.25 285.46   C 243.86 283.93 243.87 282.51 242.72 281.14   C 239.70 277.54 235.27 273.38 233.45 269.08   Q 232.73 267.40 231.28 266.20   Q 253.19 264.69 275.00 261.48   C 297.85 258.12 319.59 261.09 338.56 274.68   Q 343.82 278.44 364.55 290.90   C 375.97 297.77 389.62 302.98 403.06 303.02   Q 409.14 303.04 411.74 303.73   C 414.83 304.56 417.08 310.07 412.24 310.98   C 402.54 312.82 388.14 309.17 378.89 306.11   C 345.95 295.20 322.31 261.54 283.74 272.97   C 273.85 275.90 257.09 281.99 243.25 285.46   Z"/>
<path fill="#000000" d="   M 217.54 290.50   L 202.50 292.71   C 197.58 288.15 217.81 278.15 220.83 276.93   A 0.84 0.84 0.0 0 1 221.77 277.15   L 226.46 282.46   Q 226.85 282.90 226.32 283.15   L 217.30 287.48   Q 216.72 287.76 216.90 288.38   L 217.54 290.50   Z"/>
</svg>